<svg width="91" height="60" viewBox="0 0 91 60" fill="none" xmlns="http://www.w3.org/2000/svg">
<path d="M35.0204 46.6025L0.541748 3.93357C-0.730689 2.3577 0.380745 0 2.39587 0H19.8845C20.6289 0 21.3301 0.34903 21.7819 0.944126L47.3207 34.533C48.5256 36.1194 47.4055 38.4108 45.4233 38.4108C43.4341 38.4108 42.314 36.1037 43.5362 34.5208L69.442 0.930165C69.8956 0.342049 70.5915 0 71.329 0H88.5112C90.5316 0 91.6413 2.36991 90.3567 3.94229L55.5006 46.613C55.047 47.1697 54.3684 47.4908 53.6551 47.4908H36.8746C36.1544 47.4908 35.474 47.1644 35.0204 46.6025Z" fill="#CDAA5F"/>
<path d="M38.888 47.592C38.8586 47.3145 38.8291 47.0353 38.8049 46.7561C38.7772 46.4751 38.7789 46.1959 38.7633 45.9131C38.7478 45.6304 38.7616 45.3495 38.7703 45.0667L38.7824 44.6427C38.7893 44.5013 38.8049 44.36 38.8153 44.2186C38.9001 43.0878 39.0975 41.9586 39.4022 40.8574C40.0081 38.6533 40.981 36.5487 42.2015 34.6203C43.4116 32.6797 44.8589 30.9066 46.4205 29.2627C47.2012 28.439 48.0253 27.6624 48.8615 26.9032C49.7011 26.1458 50.5736 25.4303 51.4565 24.7305C55.0055 21.9505 58.8523 19.612 62.8427 17.6103C64.8405 16.6121 66.8747 15.6994 68.9452 14.8791C69.9804 14.4725 71.0226 14.0816 72.0769 13.7273C72.605 13.5511 73.1312 13.3766 73.6627 13.2108C74.1959 13.0537 74.7274 12.8897 75.2676 12.7553C73.2784 13.7465 71.3152 14.764 69.3728 15.8145C67.4304 16.8616 65.5105 17.9384 63.62 19.0588C59.839 21.2943 56.1672 23.6974 52.7324 26.3832C51.8738 27.0533 51.0289 27.7409 50.2118 28.4582C49.3895 29.1684 48.5914 29.9049 47.8141 30.6623C47.0402 31.4214 46.2958 32.2085 45.5756 33.0165C44.8607 33.8297 44.1838 34.6726 43.5467 35.5452C42.2638 37.2851 41.1818 39.1716 40.3647 41.1855C39.951 42.1925 39.6324 43.2378 39.3814 44.3076C39.3502 44.442 39.3156 44.5746 39.2862 44.709L39.2117 45.1156C39.1615 45.3861 39.1079 45.6584 39.0767 45.9341C39.0421 46.2081 38.9884 46.4838 38.9676 46.7595C38.9434 47.0353 38.9157 47.3128 38.888 47.592Z" fill="#CDAA5F"/>
<path d="M38.888 47.592C38.7374 45.3669 39.0196 43.1017 39.6826 40.9534C40.3543 38.8069 41.3532 36.7633 42.5945 34.8908C43.8167 33.0025 45.2744 31.2836 46.8273 29.671C48.394 28.0707 50.0768 26.5926 51.8288 25.2104C52.7065 24.5228 53.605 23.8614 54.5173 23.2227C55.4297 22.584 56.3524 21.9592 57.2942 21.3659C59.1795 20.1827 61.0994 19.0588 63.0695 18.0344C65.0344 16.9978 67.0374 16.0414 69.0681 15.1514C71.104 14.2736 73.1607 13.4429 75.2658 12.7536C73.2299 13.6226 71.2252 14.5563 69.2464 15.5388C67.2659 16.5161 65.3131 17.551 63.3898 18.6312C62.4307 19.1757 61.4768 19.7307 60.5315 20.2996C59.588 20.8702 58.6549 21.4566 57.7339 22.0604C55.8902 23.2663 54.0828 24.5316 52.3585 25.898C50.6204 27.247 48.9619 28.699 47.4055 30.2504C46.6282 31.027 45.8786 31.8315 45.1653 32.6657C44.4538 33.5034 43.7821 34.3725 43.1502 35.2695C42.5201 36.1682 41.9418 37.1054 41.4259 38.0757C40.9083 39.0442 40.4565 40.0512 40.0808 41.0861C39.3225 43.1576 38.9278 45.3634 38.888 47.592Z" fill="black"/>
<path d="M24.8981 59.3002L21.9464 51.5762H23.7694L26.0165 57.8238H25.2669L27.5469 51.5762H29.349L26.3644 59.3002H24.8981Z" fill="white" fill-opacity="0.69"/>
<path d="M31.3122 59.4101C30.8275 59.4101 30.3947 59.2897 30.0156 59.0489C29.6364 58.8081 29.3352 58.48 29.1153 58.0646C28.8937 57.6493 28.7847 57.1746 28.7847 56.6423C28.7847 56.1101 28.8955 55.6354 29.1153 55.22C29.3352 54.8047 29.6364 54.4766 30.0156 54.2358C30.3947 53.9949 30.8275 53.8745 31.3122 53.8745C31.6671 53.8745 31.9874 53.9443 32.2731 54.0822C32.5587 54.2201 32.7924 54.412 32.9725 54.6564C33.1525 54.9007 33.2547 55.1799 33.2772 55.494V57.7924C33.2547 58.1065 33.156 58.3857 32.9794 58.6301C32.8028 58.8744 32.5691 59.0663 32.28 59.2042C31.9874 59.3403 31.6654 59.4101 31.3122 59.4101ZM31.6481 57.9006C32.003 57.9006 32.2886 57.7819 32.505 57.5446C32.7214 57.3072 32.8305 57.0071 32.8305 56.6423C32.8305 56.3945 32.782 56.1764 32.6833 55.9862C32.5864 55.7959 32.4479 55.6493 32.2713 55.5429C32.0947 55.4364 31.8887 55.3841 31.6585 55.3841C31.4265 55.3841 31.2222 55.4364 31.0456 55.5429C30.8691 55.6493 30.7271 55.7959 30.6232 55.9862C30.5176 56.1764 30.4657 56.3945 30.4657 56.6423C30.4657 56.8832 30.5159 57.0978 30.618 57.288C30.7184 57.4783 30.8604 57.6266 31.0422 57.7365C31.2205 57.8447 31.423 57.9006 31.6481 57.9006ZM32.7664 59.3002V57.8674L33.0157 56.576L32.7664 55.2846V53.9827H34.3938V59.3002H32.7664Z" fill="white" fill-opacity="0.69"/>
<path d="M35.5658 59.3002V51.3563H37.226V59.3002H35.5658Z" fill="white" fill-opacity="0.69"/>
<path d="M42.2084 59.5183C41.6371 59.5183 41.1057 59.4171 40.6123 59.2129C40.1206 59.0088 39.6913 58.7243 39.326 58.3596C38.9607 57.9948 38.6751 57.5708 38.469 57.0856C38.263 56.6004 38.1592 56.0769 38.1592 55.515C38.1592 54.946 38.2596 54.4208 38.4638 53.9391C38.6664 53.4574 38.9503 53.0368 39.3156 52.6756C39.6809 52.3144 40.1085 52.0334 40.5967 51.8327C41.0849 51.632 41.6146 51.5325 42.1859 51.5325C42.7642 51.5325 43.2991 51.6338 43.7873 51.8327C44.2755 52.0334 44.7031 52.3144 45.0684 52.6756C45.4337 53.0368 45.7176 53.4592 45.9202 53.9443C46.1227 54.4295 46.2248 54.9565 46.2248 55.5254C46.2248 56.0874 46.1227 56.6109 45.9202 57.0961C45.7176 57.5812 45.4337 58.0036 45.0684 58.3648C44.7031 58.726 44.2772 59.0088 43.7925 59.2129C43.3078 59.4171 42.7797 59.5183 42.2084 59.5183ZM42.1859 57.9547C42.6482 57.9547 43.0498 57.8535 43.3909 57.6493C43.7302 57.4451 43.9968 57.1589 44.1889 56.7907C44.3811 56.4224 44.4763 55.9984 44.4763 55.5167C44.4763 55.152 44.4227 54.8221 44.3136 54.5272C44.2045 54.2323 44.0487 53.9757 43.8462 53.7611C43.6436 53.5464 43.403 53.3824 43.1243 53.269C42.8455 53.1555 42.5322 53.0997 42.1859 53.0997C41.7306 53.0997 41.3325 53.2009 40.9914 53.3998C40.6504 53.6005 40.3855 53.8815 40.1933 54.2428C40.0012 54.604 39.9059 55.0281 39.9059 55.5167C39.9059 55.8814 39.9596 56.213 40.0687 56.5132C40.1777 56.8116 40.3335 57.0699 40.5361 57.2845C40.7387 57.4992 40.9793 57.665 41.258 57.7819C41.5367 57.8971 41.8466 57.9547 42.1859 57.9547ZM45.6276 60L43.3909 57.8988L44.4244 57.0036L46.6144 59.0035L45.6276 60Z" fill="white" fill-opacity="0.69"/>
<path d="M49.6319 59.4206C49.1471 59.4206 48.7178 59.3194 48.3456 59.1204C47.9734 58.9198 47.6825 58.6423 47.4713 58.2898C47.2618 57.9355 47.1562 57.5289 47.1562 57.0699V53.9845H48.8165V57.0472C48.8165 57.2304 48.8476 57.3858 48.9082 57.5184C48.9688 57.6493 49.0623 57.7522 49.1852 57.8238C49.3081 57.8971 49.457 57.9337 49.6301 57.9337C49.876 57.9337 50.0716 57.8552 50.217 57.6981C50.3624 57.5411 50.4334 57.3247 50.4334 57.0472V53.9845H52.0936V57.0594C52.0936 57.5271 51.988 57.9372 51.7786 58.2898C51.5691 58.644 51.28 58.9215 50.9095 59.1204C50.5442 59.3211 50.1166 59.4206 49.6319 59.4206Z" fill="white" fill-opacity="0.69"/>
<path d="M55.743 59.4206C55.1717 59.4206 54.6627 59.3019 54.2178 59.0646C53.7729 58.8273 53.4232 58.4974 53.1704 58.0751C52.9177 57.6528 52.7913 57.1746 52.7913 56.6423C52.7913 56.1101 52.916 55.6336 53.1653 55.2148C53.4145 54.796 53.7539 54.4661 54.1797 54.2253C54.6073 53.9845 55.0869 53.864 55.6236 53.864C56.1447 53.864 56.6034 53.9775 57.0016 54.2026C57.3998 54.4295 57.7131 54.7419 57.9399 55.1432C58.1684 55.5446 58.2827 56.0036 58.2827 56.5219C58.2827 56.6162 58.2775 56.7174 58.2671 56.8221C58.2567 56.9285 58.236 57.0507 58.2083 57.1886L53.6604 57.199V56.0507L57.5019 56.0403L56.7852 56.5219C56.7783 56.2148 56.7315 55.9617 56.645 55.761C56.5584 55.5603 56.4303 55.4068 56.2589 55.3021C56.0893 55.1956 55.8815 55.1432 55.6357 55.1432C55.376 55.1432 55.1492 55.2026 54.957 55.323C54.7649 55.4434 54.616 55.6127 54.5121 55.8326C54.4065 56.0507 54.3546 56.3177 54.3546 56.6319C54.3546 56.946 54.41 57.213 54.5225 57.4364C54.635 57.6598 54.7943 57.8308 55.0003 57.9512C55.2063 58.0716 55.4504 58.1309 55.7326 58.1309C55.9923 58.1309 56.2278 58.0856 56.439 57.9948C56.6484 57.9041 56.8337 57.7662 56.9929 57.5847L57.9053 58.5044C57.6456 58.8098 57.3305 59.0402 56.9618 59.1937C56.5896 59.3438 56.1827 59.4206 55.743 59.4206Z" fill="white" fill-opacity="0.69"/>
<path d="M61.0059 59.4311C60.6943 59.4311 60.3896 59.3909 60.0883 59.3107C59.7888 59.2304 59.5101 59.1152 59.2522 58.9669C58.996 58.8168 58.7761 58.644 58.596 58.4468L59.5396 57.4835C59.7127 57.6737 59.9187 57.8203 60.1576 57.9268C60.3965 58.0332 60.6562 58.0856 60.9384 58.0856C61.134 58.0856 61.2846 58.0559 61.3885 57.9983C61.4941 57.9407 61.546 57.8604 61.546 57.7575C61.546 57.6266 61.482 57.5254 61.3556 57.4573C61.2292 57.3875 61.0682 57.3264 60.8726 57.2706C60.677 57.2165 60.4709 57.1554 60.2545 57.0908C60.0381 57.0263 59.8321 56.9338 59.6365 56.8168C59.4409 56.6999 59.2816 56.5376 59.1587 56.3299C59.0358 56.1223 58.9734 55.857 58.9734 55.5376C58.9734 55.1956 59.06 54.8972 59.2331 54.6459C59.4062 54.3946 59.6521 54.1956 59.9706 54.049C60.2892 53.9024 60.6614 53.8309 61.089 53.8309C61.5374 53.8309 61.9511 53.9094 62.332 54.0665C62.7111 54.2236 63.021 54.4557 63.2599 54.7611L62.3164 55.7244C62.1502 55.5272 61.9632 55.3893 61.7572 55.309C61.5512 55.2288 61.3504 55.1886 61.1548 55.1886C60.9661 55.1886 60.8258 55.2165 60.7306 55.2706C60.6371 55.3247 60.5904 55.4033 60.5904 55.5062C60.5904 55.6162 60.651 55.7034 60.7756 55.768C60.8985 55.8343 61.0578 55.8919 61.2534 55.9425C61.4491 55.9931 61.6551 56.056 61.8715 56.1293C62.0879 56.2026 62.2939 56.3003 62.4895 56.4242C62.6852 56.5481 62.8444 56.7139 62.9673 56.9216C63.0903 57.1292 63.1526 57.4015 63.1526 57.7365C63.1526 58.2548 62.9587 58.6667 62.5726 58.9721C62.1866 59.2793 61.6637 59.4311 61.0059 59.4311Z" fill="white" fill-opacity="0.69"/>
<path d="M65.9762 59.4311C65.6646 59.4311 65.3599 59.3909 65.0586 59.3107C64.7574 59.2304 64.4804 59.1152 64.2225 58.9669C63.9662 58.8168 63.7464 58.644 63.5663 58.4468L64.5098 57.4835C64.683 57.6737 64.889 57.8203 65.1279 57.9268C65.3668 58.0332 65.6265 58.0856 65.9087 58.0856C66.1043 58.0856 66.2549 58.0559 66.3588 57.9983C66.4644 57.9407 66.5163 57.8604 66.5163 57.7575C66.5163 57.6266 66.4523 57.5254 66.3259 57.4573C66.1995 57.3875 66.0385 57.3264 65.8429 57.2706C65.6472 57.2147 65.4412 57.1554 65.2248 57.0908C65.0084 57.0263 64.8007 56.9338 64.6068 56.8168C64.4112 56.6999 64.2519 56.5376 64.129 56.3299C64.0061 56.1223 63.9437 55.857 63.9437 55.5376C63.9437 55.1956 64.0303 54.8972 64.2034 54.6459C64.3765 54.3946 64.6224 54.1956 64.9409 54.049C65.2595 53.9024 65.6317 53.8309 66.0593 53.8309C66.5077 53.8309 66.9214 53.9094 67.3023 54.0665C67.6814 54.2236 67.9913 54.4557 68.2302 54.7611L67.285 55.7244C67.1188 55.5272 66.9318 55.3893 66.7258 55.309C66.5198 55.2288 66.319 55.1886 66.1233 55.1886C65.9346 55.1886 65.7944 55.2165 65.6992 55.2706C65.604 55.3247 65.559 55.4033 65.559 55.5062C65.559 55.6162 65.6195 55.7034 65.7442 55.768C65.8688 55.8326 66.0264 55.8919 66.222 55.9425C66.4176 55.9931 66.6236 56.056 66.84 56.1293C67.0564 56.2026 67.2642 56.3003 67.4581 56.4242C67.6537 56.5481 67.813 56.7139 67.9359 56.9216C68.0588 57.1292 68.1211 57.4015 68.1211 57.7365C68.1211 58.2548 67.9272 58.6667 67.5412 58.9721C67.1586 59.2793 66.6358 59.4311 65.9762 59.4311Z" fill="white" fill-opacity="0.69"/>
<path d="M41.7756 55.1293L40.2452 58.1414H43.3059L41.7756 55.1293Z" fill="white" fill-opacity="0.69"/>
<path d="M43.306 56.3963L42.4197 58.1414H44.1907L43.306 56.3963Z" fill="white" fill-opacity="0.69"/>
</svg>
