<svg width="875" height="548" viewBox="0 0 875 548" fill="none" xmlns="http://www.w3.org/2000/svg">
<g filter="url(#filter0_f_387_237)">
<path d="M117.801 117.8L285.168 117.8L527.653 386.551L422.477 465.19L117.801 117.8Z" fill="#0A0A1E"/>
<path d="M867.801 117.8L690.728 117.8L457.948 386.551L563.125 465.19L867.801 117.8Z" fill="#0A0A1E"/>
<path d="M491.331 342.89L557.465 462.477H425.198L491.331 342.89Z" fill="#0A0A1E"/>
</g>
<path d="M411.946 450.744L143.005 111.815C133.08 99.2971 141.749 80.5693 157.468 80.5693H293.883C299.689 80.5693 305.158 83.3418 308.683 88.0688L507.891 354.874C517.289 367.474 508.552 385.675 493.091 385.675C477.575 385.675 468.838 367.35 478.371 354.777L680.442 87.9579C683.98 83.2863 689.409 80.5693 695.161 80.5693H829.186C844.945 80.5693 853.601 99.3941 843.581 111.884L571.696 450.827C568.158 455.249 562.865 457.8 557.301 457.8H426.409C420.791 457.8 415.484 455.208 411.946 450.744Z" fill="#CDAA5F"/>
<g opacity="0.3">
<path d="M442.115 458.605C441.886 456.401 441.656 454.183 441.467 451.965C441.251 449.733 441.264 447.515 441.143 445.27C441.021 443.024 441.129 440.792 441.197 438.546L441.291 435.178C441.345 434.055 441.467 432.932 441.548 431.809C442.21 422.827 443.749 413.858 446.126 405.111C450.852 387.603 458.441 370.885 467.961 355.568C477.401 340.153 488.69 326.069 500.87 313.011C506.96 306.468 513.388 300.299 519.91 294.269C526.46 288.253 533.266 282.57 540.153 277.011C567.835 254.928 597.841 236.353 628.967 220.453C644.55 212.524 660.417 205.274 676.568 198.759C684.643 195.529 692.772 192.424 700.996 189.61C705.115 188.21 709.22 186.824 713.366 185.507C717.525 184.259 721.671 182.956 725.884 181.889C710.368 189.762 695.055 197.844 679.903 206.189C664.752 214.506 649.776 223.059 635.03 231.959C605.538 249.716 576.896 268.804 550.105 290.138C543.407 295.461 536.817 300.923 530.443 306.62C524.029 312.262 517.804 318.112 511.741 324.128C505.705 330.158 499.898 336.41 494.28 342.828C488.703 349.288 483.423 355.983 478.454 362.915C468.448 376.735 460.008 391.72 453.634 407.717C450.407 415.716 447.922 424.019 445.964 432.516C445.721 433.584 445.451 434.637 445.221 435.705L444.64 438.935C444.249 441.083 443.83 443.246 443.587 445.436C443.317 447.612 442.898 449.803 442.736 451.993C442.547 454.183 442.331 456.387 442.115 458.605Z" fill="#CDAA5F"/>
</g>
<path d="M442.115 458.604C440.941 440.93 443.142 422.937 448.314 405.873C453.553 388.822 461.345 372.59 471.027 357.715C480.561 342.717 491.931 329.062 504.044 316.254C516.265 303.542 529.39 291.801 543.056 280.822C549.903 275.36 556.911 270.107 564.028 265.033C571.144 259.96 578.342 254.997 585.688 250.284C600.393 240.885 615.369 231.958 630.736 223.821C646.063 215.587 661.687 207.99 677.527 200.921C693.407 193.948 709.45 187.35 725.87 181.874C709.99 188.777 694.353 196.194 678.918 203.998C663.469 211.761 648.237 219.981 633.234 228.562C625.753 232.887 618.313 237.295 610.94 241.814C603.58 246.347 596.302 251.005 589.118 255.801C574.736 265.38 560.638 275.43 547.188 286.284C533.631 296.999 520.694 308.533 508.554 320.856C502.491 327.025 496.644 333.415 491.08 340.041C485.53 346.695 480.291 353.598 475.362 360.724C470.446 367.863 465.936 375.307 461.912 383.014C457.874 390.707 454.35 398.706 451.42 406.926C445.505 423.38 442.426 440.902 442.115 458.604Z" fill="black"/>
<path d="M707.074 201.766L725.155 184.272C726.735 182.733 725.723 180.446 723.548 180.682L698.094 183.357" stroke="black" stroke-width="1.83307" stroke-miterlimit="10"/>
<defs>
<filter id="filter0_f_387_237" x="0.000778198" y="-0.000198364" width="985.6" height="582.99" filterUnits="userSpaceOnUse" color-interpolation-filters="sRGB">
<feFlood flood-opacity="0" result="BackgroundImageFix"/>
<feBlend mode="normal" in="SourceGraphic" in2="BackgroundImageFix" result="shape"/>
<feGaussianBlur stdDeviation="58.9" result="effect1_foregroundBlur_387_237"/>
</filter>
</defs>
</svg>
